<?xml version="1.0" encoding="UTF-8" standalone="no"?> <svg xmlns="http://www.w3.org/2000/svg" width="110" height="84.45" viewBox="0 0 110 84.45"><defs><style>.cls-1{fill:#ffcb1e;}.cls-2{opacity:0.98;}</style></defs><title>Asset 50</title><g id="Layer_2" data-name="Layer 2"><g id="Icons"><g id="Construction_machinery" data-name="Construction machinery"><g id="Crawler_crane" data-name="Crawler crane"><path class="cls-1" d="M105.5,41.93A3.5,3.5,0,0,0,102,45.77l.22,2.26a3.28,3.28,0,0,0,6.52,0l.22-2.26a3.5,3.5,0,0,0-3.48-3.84Z"/><path class="cls-1" d="M107.34,2.45h-6.22l-.89-1.06a1.09,1.09,0,0,0-1.54-.13L77.31,19.2,77,18.85a1.55,1.55,0,0,0-2.18-.19L51.26,38.45H54a24.5,24.5,0,0,1,3.65,9L81.92,27.09a1.56,1.56,0,0,0,.19-2.18l-.3-.35L102.2,7.45h5.14A1.66,1.66,0,0,0,109,5.79V4.11A1.66,1.66,0,0,0,107.34,2.45Z"/><path class="cls-1" d="M32,50.45H6.62A5.63,5.63,0,0,0,1,56.08v7.66a1.7,1.7,0,0,0,1.71,1.71h53.2A2.1,2.1,0,0,0,58,63.36v-.91S46,62.45,32,50.45Z"/><path class="cls-2" d="M51.5,41H41.84a1.34,1.34,0,0,0-1.34,1.34V52a1.41,1.41,0,0,0,.65,1.18,48.55,48.55,0,0,0,13,5.6,1,1,0,0,0,.29,0,1,1,0,0,0,.62-.21,1,1,0,0,0,.42-.84V52.42a24.52,24.52,0,0,0-2.82-10.79A1.33,1.33,0,0,0,51.5,41Zm3,16.78-.06.05a47.64,47.64,0,0,1-12.75-5.49A.39.39,0,0,1,41.5,52V42.29a.34.34,0,0,1,.34-.34H51.5a.37.37,0,0,1,.31.17A23.54,23.54,0,0,1,54.5,52.45Z"/><path class="cls-2" d="M5,76.45a5,5,0,0,0,5,5H60a5,5,0,0,0,0-10H10A5,5,0,0,0,5,76.45Zm55-4a4,4,0,1,1-4,4A4,4,0,0,1,60,72.45Zm-3,0a5,5,0,0,0,0,8H13a5,5,0,0,0,0-8Zm-43,4a4,4,0,1,1-4-4A4,4,0,0,1,14,76.45Z"/><path d="M110,5.79V4.11a2.66,2.66,0,0,0-2.66-2.66h-5.75L101,.75A2.12,2.12,0,0,0,99.39,0a2.07,2.07,0,0,0-1.34.49L77.39,17.83a2.55,2.55,0,0,0-3.19.06L50.9,37.45H34.61A2.75,2.75,0,0,0,31.87,40l-.79,9.47H6.62A6.63,6.63,0,0,0,0,56.08v7.66a2.71,2.71,0,0,0,2.71,2.71H20l-1.5,2H10.27A8.18,8.18,0,0,0,2,75.92a8,8,0,0,0,8,8.53H59.73A8.18,8.18,0,0,0,68,77a8,8,0,0,0-8-8.53H47.5l-1.5-2h9.91A3.09,3.09,0,0,0,59,63.36v-.91h0V56.88L74,35.06l8.59-7.21a2.55,2.55,0,0,0,.62-3.13L102.57,8.45H103V41.7a4.49,4.49,0,0,0-2,4.17l.23,2.26a4.27,4.27,0,0,0,3.67,3.79v1.84l.38.25a4.43,4.43,0,0,1,.45.36,1.67,1.67,0,0,1,.2,2.19.58.58,0,0,1-.78.1,1.21,1.21,0,0,1-.49-1,.85.85,0,0,0-1.68.19A2.94,2.94,0,0,0,104.19,58a2.23,2.23,0,0,0,1.31.41,2.29,2.29,0,0,0,1.8-.87,3.36,3.36,0,0,0-.39-4.43l-.3-.27V51.81a4.26,4.26,0,0,0,3.14-3.68l.23-2.26a4.49,4.49,0,0,0-2-4.17V8.36A2.66,2.66,0,0,0,110,5.79ZM60,70.45a6,6,0,0,1,6,6.79,6.15,6.15,0,0,1-6.16,5.21H10.21a6.15,6.15,0,0,1-6.16-5.21,6,6,0,0,1,6-6.79Zm-39-2,1.5-2h21l1.5,2Zm34.91-4H2.71A.71.71,0,0,1,2,63.74V56.08a4.62,4.62,0,0,1,4.62-4.63h25C43.48,61.49,53.8,63.13,57,63.4A1.09,1.09,0,0,1,55.91,64.45ZM57,61.38c-3.07-.31-12.88-2-24-11.36l.82-9.88a.75.75,0,0,1,.75-.69H52.74a1.21,1.21,0,0,1,1,.57A24.26,24.26,0,0,1,57,52.45Zm2-6.27V52.45a28.88,28.88,0,0,0-.35-4.53L71.11,37.46ZM81.27,26.32,58.2,45.68c-.16-.64-.33-1.28-.54-1.9l-.8-2.07A25,25,0,0,0,55.52,39a3.11,3.11,0,0,0-1.74-1.38L75.49,19.43a.51.51,0,0,1,.35-.13.55.55,0,0,1,.42.19l5.08,6.06A.55.55,0,0,1,81.27,26.32ZM108,45.82l-.21,2.11a2.27,2.27,0,0,1-2.65,2,2.34,2.34,0,0,1-1.88-2.12l-.2-2a2.63,2.63,0,0,1,.59-2,2.5,2.5,0,0,1,3.76,0A2.63,2.63,0,0,1,108,45.82Zm-4-4.61V8.45h3V41.21a4.16,4.16,0,0,0-3,0Zm3.34-34.76h-5.11a1.09,1.09,0,0,0-.71.26L81.94,23.15l-3.22-3.83L99.34,2a.06.06,0,0,1,0,0,.08.08,0,0,1,.07,0l1,1.16a.71.71,0,0,0,.56.26h6.35a.67.67,0,0,1,.66.66V5.79A.67.67,0,0,1,107.34,6.45Z"/></g></g></g></g></svg>