<svg id="bold" height="512" viewBox="0 0 24 24" width="512" xmlns="http://www.w3.org/2000/svg"><path d="m24 6h-24v-5.25c0-.414.336-.75.75-.75h4.5c.414 0 .75.336.75.75v1.25c0 .552.448 1 1 1h1c.552 0 1-.448 1-1v-1.25c0-.414.336-.75.75-.75h4.5c.414 0 .75.336.75.75v1.25c0 .552.448 1 1 1h1c.552 0 1-.448 1-1v-1.25c0-.414.336-.75.75-.75h4.5c.414 0 .75.336.75.75z"/><path d="m24 8-4 4h-16l-4-4z"/><path d="m19.25 10h-14.5c-.414 0-.75.336-.75.75v12.5c0 .414.336.75.75.75h3.5c.414 0 .75-.336.75-.75v-2.25c0-1.657 1.343-3 3-3s3 1.343 3 3v2.25c0 .414.336.75.75.75h3.5c.414 0 .75-.336.75-.75v-12.5c0-.414-.336-.75-.75-.75zm-9.25 5c0 .552-.448 1-1 1h-2c-.552 0-1-.448-1-1v-1c0-.552.448-1 1-1h2c.552 0 1 .448 1 1zm8 0c0 .552-.448 1-1 1h-2c-.552 0-1-.448-1-1v-1c0-.552.448-1 1-1h2c.552 0 1 .448 1 1z"/></svg>