<?xml version="1.0" encoding="iso-8859-1"?>
<!-- Generator: Adobe Illustrator 22.1.0, SVG Export Plug-In . SVG Version: 6.00 Build 0)  -->
<svg xmlns="http://www.w3.org/2000/svg" xmlns:xlink="http://www.w3.org/1999/xlink" version="1.1" id="Layer_1_1_" x="0px" y="0px" viewBox="0 0 64 64" style="enable-background:new 0 0 64 64;" xml:space="preserve" width="512" height="512">
<g>
	<g>
		<rect x="16" y="54" style="fill:#F0BC5E;" width="12" height="4"/>
	</g>
	<g>
		<rect x="16" y="18" style="fill:#F0BC5E;" width="12" height="4"/>
	</g>
	<g>
		<rect x="16" y="36" style="fill:#F0BC5E;" width="12" height="4"/>
	</g>
	<g>
		<path d="M46,59c1.654,0,3-1.346,3-3s-1.346-3-3-3s-3,1.346-3,3S44.346,59,46,59z M46,55c0.552,0,1,0.449,1,1s-0.448,1-1,1    s-1-0.449-1-1S45.448,55,46,55z"/>
		<path d="M29,53H15v6h14V53z M23,55v2h-2v-2H23z M17,55h2v2h-2V55z M27,57h-2v-2h2V57z"/>
		<path d="M29,23v-6H15v6H29z M21,21v-2h2v2H21z M27,21h-2v-2h2V21z M17,19h2v2h-2V19z"/>
		<path d="M50,45c1.654,0,3-1.346,3-3v-8c0-1.654-1.346-3-3-3H17v-4h17.787v-2H14c-0.552,0-1-0.449-1-1v-8c0-0.551,0.448-1,1-1h18    v-2H14c-1.654,0-3,1.346-3,3v8c0,1.654,1.346,3,3,3h1v4h-1c-1.654,0-3,1.346-3,3v1H5V18.816C6.161,18.402,7,17.302,7,16    c0-1.654-1.346-3-3-3s-3,1.346-3,3c0,1.302,0.839,2.402,2,2.816V37h8v2H3v18.184C1.839,57.598,1,58.698,1,60c0,1.654,1.346,3,3,3    s3-1.346,3-3c0-1.302-0.839-2.402-2-2.816V41h6v1c0,1.654,1.346,3,3,3h1v4h-1c-1.654,0-3,1.346-3,3v8c0,1.654,1.346,3,3,3h36    c1.654,0,3-1.346,3-3v-8c0-1.654-1.346-3-3-3h-1v-4H50z M4,15c0.552,0,1,0.449,1,1s-0.448,1-1,1s-1-0.449-1-1S3.448,15,4,15z     M4,61c-0.552,0-1-0.449-1-1s0.448-1,1-1s1,0.449,1,1S4.552,61,4,61z M13,42v-8c0-0.551,0.448-1,1-1h36c0.552,0,1,0.449,1,1v8    c0,0.551-0.448,1-1,1H14C13.448,43,13,42.551,13,42z M51,52v8c0,0.551-0.448,1-1,1H14c-0.552,0-1-0.449-1-1v-8    c0-0.551,0.448-1,1-1h36C50.552,51,51,51.449,51,52z M47,49H17v-4h30V49z"/>
		<path d="M46,35c-1.654,0-3,1.346-3,3s1.346,3,3,3s3-1.346,3-3S47.654,35,46,35z M46,39c-0.552,0-1-0.449-1-1s0.448-1,1-1    s1,0.449,1,1S46.552,39,46,39z"/>
		<path d="M15,41h14v-6H15V41z M21,39v-2h2v2H21z M27,39h-2v-2h2V39z M17,37h2v2h-2V37z"/>
	</g>
	<g>
		<path style="fill:#F0BC5E;" d="M63,20.771v-7.541l-3.934-1.037c-0.043-0.108-0.088-0.217-0.135-0.324l2.048-3.516l-5.332-5.332    l-3.516,2.048c-0.107-0.047-0.216-0.092-0.324-0.135L50.771,1h-7.541l-1.037,3.934c-0.108,0.043-0.217,0.088-0.324,0.135    l-3.516-2.048l-5.332,5.332l2.048,3.516c-0.047,0.107-0.092,0.216-0.135,0.324L31,13.229v7.541l3.934,1.037    c0.043,0.108,0.088,0.217,0.135,0.324l-2.048,3.516l5.332,5.332l3.516-2.048c0.107,0.047,0.216,0.092,0.324,0.135L43.229,33h7.541    l1.037-3.934c0.108-0.043,0.217-0.088,0.324-0.135l3.516,2.048l5.332-5.332l-2.048-3.516c0.047-0.107,0.092-0.216,0.135-0.324    L63,20.771z M47,25c-4.418,0-8-3.582-8-8s3.582-8,8-8s8,3.582,8,8S51.418,25,47,25z"/>
	</g>
	<g>
		<path d="M47,26c-4.963,0-9-4.038-9-9s4.037-9,9-9s9,4.038,9,9S51.963,26,47,26z M47,10c-3.859,0-7,3.14-7,7s3.141,7,7,7    s7-3.14,7-7S50.859,10,47,10z"/>
	</g>
	<g>
		<path d="M47,22c-2.757,0-5-2.243-5-5s2.243-5,5-5s5,2.243,5,5S49.757,22,47,22z M47,14c-1.654,0-3,1.346-3,3s1.346,3,3,3    s3-1.346,3-3S48.654,14,47,14z"/>
	</g>
</g>
</svg>
