<?xml version="1.0" encoding="UTF-8"?><svg id="Layer_1" xmlns="http://www.w3.org/2000/svg" xmlns:xlink="http://www.w3.org/1999/xlink" viewBox="0 0 48 48"><defs><style>.cls-1{fill:url(#linear-gradient);}.cls-2{fill:url(#linear-gradient-8);}.cls-3{fill:url(#linear-gradient-3);}.cls-4{fill:url(#linear-gradient-4);}.cls-5{fill:url(#linear-gradient-2);}.cls-6{fill:url(#linear-gradient-6);}.cls-7{fill:url(#linear-gradient-7);}.cls-8{fill:url(#linear-gradient-5);}</style><linearGradient id="linear-gradient" x1="20.332" y1="13.464" x2="20.332" y2="37.788" gradientTransform="matrix(1, 0, 0, 1, 0, 0)" gradientUnits="userSpaceOnUse"><stop offset="0" stop-color="#f1d2bd"/><stop offset="1" stop-color="#feb592"/></linearGradient><linearGradient id="linear-gradient-2" x1="31.441" y1="13.17" x2="31.441" y2="30.013" gradientTransform="matrix(1, 0, 0, 1, 0, 0)" gradientUnits="userSpaceOnUse"><stop offset="0" stop-color="#edc2a8"/><stop offset="1" stop-color="#d69769"/></linearGradient><linearGradient id="linear-gradient-3" x1="8.945" y1="27.433" x2="12.288" y2="30.776" xlink:href="#linear-gradient-2"/><linearGradient id="linear-gradient-4" x1="12.622" y1="29.801" x2="16.028" y2="33.207" xlink:href="#linear-gradient-2"/><linearGradient id="linear-gradient-5" x1="15.658" y1="33.064" x2="19.001" y2="36.408" gradientTransform="translate(32.799 -.867) rotate(50)" xlink:href="#linear-gradient-2"/><linearGradient id="linear-gradient-6" x1="18.695" y1="36.333" x2="21.972" y2="39.609" gradientTransform="translate(36.351 -2.012) rotate(50)" xlink:href="#linear-gradient-2"/><linearGradient id="linear-gradient-7" x1="44.171" y1="16.613" x2="39.135" y2="20.149" gradientTransform="translate(14.749 -18.423) rotate(30)" gradientUnits="userSpaceOnUse"><stop offset="0" stop-color="#4793eb"/><stop offset="1" stop-color="#2367ec"/></linearGradient><linearGradient id="linear-gradient-8" x1="3.34" y1="16.483" x2="8.965" y2="20.019" gradientTransform="translate(18.981 3.745) rotate(60)" gradientUnits="userSpaceOnUse"><stop offset="0" stop-color="#34ca82"/><stop offset="1" stop-color="#37a477"/></linearGradient></defs><path class="cls-1" d="M23.13,38.015l1.928,1.76c.419,.388,.943,.576,1.477,.576,.597,0,1.194-.241,1.624-.723,.807-.89,.744-2.273-.147-3.09l.703,.64c.893,.816,2.279,.753,3.095-.14h0c.816-.893,.753-2.279-.14-3.095l1.298,1.185c.893,.816,2.279,.753,3.095-.14h0c.816-.893,.753-2.279-.14-3.095,0,0,1.147,.08,2.107-1.042s.547-1.816,.547-1.816l-.807-7.933-14.273-7.073-6.232-.778c-1.336-.164-2.683-.022-3.954,.416l-3.22,1.128-2.852-1.117L2,23.108l2.095,1.708,.021,.031,3.426,4.536,15.589,8.632Z"/><path class="cls-5" d="M42.616,24.145l-4.023,5.06-.017-.169c-.074-.475-.304-.929-.687-1.278l-9.508-8.186-7.392,3.001c-1.38,.56-2.963,.017-3.708-1.273h0c-.803-1.39-.362-3.166,.998-4.02l4.68-2.938c1.396-.876,3.011-1.341,4.659-1.341h3.457c1.115,0,2.219,.213,3.254,.627l3.78,1.512,2.653-1.46,5.238,8.381-3.384,2.085Z"/><path class="cls-3" d="M13.576,28.985l-2.567,3.059c-.744,.88-2.064,1.006-2.954,.262l-.147-.126c-.828-.702-.985-1.917-.367-2.797,.031-.052,.073-.105,.115-.157l2.567-3.059c.744-.89,2.064-1.006,2.954-.262l.147,.126c.88,.744,.995,2.064,.251,2.954Z"/><path class="cls-4" d="M17.641,30.954l-.545,.66c-.052,.063-.105,.115-.157,.178l-2.577,3.07c-.744,.88-2.064,.995-2.944,.251l-.147-.115c-.89-.744-1.006-2.074-.262-2.954l2.567-3.059,.712-.838c.744-.891,2.064-1.006,2.944-.262l.147,.126c.891,.744,1.006,2.064,.262,2.944Z"/><rect class="cls-8" x="13.236" y="32.545" width="8.187" height="4.381" rx="2.095" ry="2.095" transform="translate(-20.419 25.683) rotate(-50)"/><rect class="cls-6" x="16.788" y="35.781" width="7.092" height="4.381" rx="2.095" ry="2.095" transform="translate(-21.824 29.14) rotate(-50)"/><rect class="cls-7" x="38.506" y="9.975" width="6.493" height="16.671" rx="2" ry="2" transform="translate(-3.562 23.329) rotate(-30)"/><rect class="cls-2" x="-2.088" y="15.064" width="16.671" height="6.493" rx="2" ry="2" transform="translate(-12.734 14.566) rotate(-60)"/></svg>