<svg id="Layer_35" enable-background="new 0 0 64 64" height="512" viewBox="0 0 64 64" width="512" xmlns="http://www.w3.org/2000/svg"><g fill="#f0bc5e"><path d="m32 5h24v5h-24z"/><path d="m41 24h6v2h-6z"/><path d="m57 54h2v4h-2z"/><path d="m43 54h2v4h-2z"/><path d="m29 54h2v4h-2z"/></g><path d="m32 5h2v2h-2z"/><path d="m36 5h2v2h-2z"/><path d="m40 5h2v2h-2z"/><path d="m44 5h12v2h-12z"/><path d="m32 9h24v2h-24z"/><path d="m59 49v-4h-14v-3.42l8.016-4.58-8.016-4.58v-2.42h3c1.654 0 3-1.346 3-3v-4c0-1.654-1.346-3-3-3h-3v-5h15v-14h-32v14h15v5h-3c-1.13 0-2.104.635-2.615 1.56-.546-.351-1.19-.56-1.885-.56h-17.226c1.667-1.467 2.726-3.61 2.726-6 0-4.411-3.589-8-8-8s-8 3.589-8 8c0 2.518 1.172 4.765 2.997 6.233-4 .914-6.997 4.494-6.997 8.767v10c0 2.757 2.243 5 5 5v14c0 2.206 1.794 4 4 4 1.2 0 2.266-.542 3-1.382.734.84 1.8 1.382 3 1.382 2.205 0 3.998-1.793 3.998-3.998l.002-30.002c0-.551.449-1 1-1h14.5c.565 0 1.091-.147 1.564-.386.285 1.361 1.492 2.386 2.936 2.386h3v2.42l-8.016 4.58 8.016 4.58v3.42h-14v4h-4v14h10v-14h-4v-2h12v2h-4v14h10v-14h-4v-2h12v2h-4v14h10v-14zm-29-46h28v10h-28zm-23 12c0-3.309 2.691-6 6-6s6 2.691 6 6-2.691 6-6 6-6-2.691-6-6zm28.5 11h-14.5c-1.654 0-3 1.346-3 3l-.002 30.002c0 1.102-.896 1.998-1.998 1.998s-1.999-.895-1.999-1.995l-.001-21.005h-2v21c0 1.103-.897 2-2 2s-2-.897-2-2v-31h-2v15c-1.654 0-3-1.346-3-3v-10c0-3.86 3.14-7 7-7h25.5c.827 0 1.5.673 1.5 1.5s-.673 1.5-1.5 1.5zm3.5 1v-4c0-.551.449-1 1-1h8c.551 0 1 .449 1 1v4c0 .551-.449 1-1 1h-8c-.551 0-1-.449-1-1zm5 7.152 4.984 2.848-4.984 2.848-4.984-2.848zm-11 26.848h-6v-10h6zm14 0h-6v-10h6zm14 0h-6v-10h6z"/><path d="m29 53h2v2h-2z"/><path d="m29 57h2v2h-2z"/><path d="m43 53h2v2h-2z"/><path d="m43 57h2v2h-2z"/><path d="m57 57h2v2h-2z"/><path d="m57 53h2v2h-2z"/><path d="m41 24h2v2h-2z"/><path d="m45 24h2v2h-2z"/></svg>