<svg width="256" height="256" version="1.1" viewBox="-19.786 -24.96 256 256" xmlns="http://www.w3.org/2000/svg" xmlns:xlink="http://www.w3.org/1999/xlink"><!--Generated by IJSVG (https://github.com/curthard89/IJSVG)--><g transform="scale(0.941249)"><path fill="#00D1AF" d="M201.012,179.452c-1.793,9.653 -9.754,14.238 -17.877,11.058c-4.553,-1.799 -9.145,-3.409 -13.764,-4.829c-8.277,-2.692 -22.016,-5.654 -30.475,-6.588c-5.127,-0.652 -10.264,-1.08 -15.404,-1.284c-8.472,-0.479 -22.331,0.17 -30.734,1.438c-18.265,2.449 -36.276,7.744 -53.537,15.862c-7.89,3.706 -15.809,-0.922 -17.839,-11.135c-8.698,-45.237 -17.398,-90.475 -26.097,-135.713c-2.027,-10.187 5.19,-23.247 16.314,-27.828c63.677,-26.367 133.237,-25.257 196.056,3.054c10.969,4.937 18.219,17.817 16.43,27.446c-7.692,42.84 -15.383,85.68 -23.073,128.519v0Z"></path><path fill="#00D1AF" d="M181.643,200.677c-46.115,-18.014 -96.049,-16.172 -140.739,5.066c-12.047,5.707 -24.222,-0.928 -27.757,-16.831c-9.526,-44.914 -19.052,-89.829 -28.578,-134.744c-3.531,-15.838 7.518,-37.086 25.348,-44.37c64.767,-26.662 135.452,-25.382 199.229,3.52c17.539,7.936 28.611,28.895 25.51,43.764c-8.389,42.299 -16.779,84.597 -25.168,126.895c-3.105,14.937 -15.392,21.485 -27.845,16.7Zm-168.362,-169.61c-4.738,1.97 -7.915,7.387 -7.13,11.855c7.868,45.518 15.736,91.035 23.603,136.553c0.786,4.474 4.259,6.641 7.787,4.999c46.869,-21.827 99.055,-23.329 147.086,-4.134c3.617,1.439 7.098,-0.713 7.795,-4.969c6.973,-43.343 13.949,-86.684 20.924,-130.025c0.695,-4.252 -2.504,-9.596 -7.186,-11.692c-61.859,-27.719 -130.292,-28.66 -192.879,-2.587Z"></path><g opacity="0.75"><path fill="#FFF" d="M15.945,70.636c0,-0.583 28.667,-3.984 24.908,-38.95c45.193,-13.211 92.505,-12.738 137.409,1.346c-0.238,0.586 -9.354,24.117 25.225,38.25c-3.957,24.841 -7.891,49.697 -11.805,74.566c0.205,-0.439 -24.057,-16.028 -27.482,18.954c-35.635,-9.673 -72.741,-8.623 -107.802,3.024c0.001,0.575 2.71,-31.755 -27.593,-18.912c-4.287,-26.092 -8.573,-52.185 -12.86,-78.278Z"></path><path fill="#FFF" d="M163.139,175.204c-34.918,-9.34 -71.239,-8.175 -105.516,3.354c-2.668,0.896 -5.367,0.397 -7.332,-1.637c-1.949,-2.018 -2.974,-5.065 -2.71,-8.525c0.005,-0.659 0.073,-6.972 -2.948,-9.754c-3.257,-3.009 -9.51,-1.31 -14.084,0.89c-4.853,2.298 -9.604,-0.324 -10.696,-6.15c-4.763,-25.943 -9.527,-51.887 -14.291,-77.831c-0.604,-3.284 0.197,-7.122 2.447,-10.37c2.233,-3.226 5.385,-5.426 8.708,-5.948c0.281,-0.064 1.49,-0.358 3.074,-1.012c3.642,-1.571 12.227,-4.714 9.854,-22.962c-0.805,-5.898 3.636,-12.47 9.98,-14.302c45.98,-13.331 94.083,-12.741 139.708,1.681c3.537,1.115 6.744,3.66 8.561,6.973c1.807,3.293 2.15,6.729 0.908,9.486c-0.201,0.561 -1.912,5.942 0.717,10.695c2.826,5.092 10.016,8.812 15.504,11.351c2.82,1.283 5.34,3.657 6.984,6.532c1.645,2.876 2.283,6.002 1.809,8.662c-4.369,24.556 -8.715,49.127 -13.041,73.714c-0.549,3.104 -2.254,5.471 -4.77,6.348c-2.504,0.872 -5.334,0.35 -7.898,-1.545c-0.223,-0.145 -1.186,-0.753 -2.527,-1.279c-3.078,-1.267 -10.416,-3.812 -12.5,13.874c-0.703,5.687 -5.136,9.032 -9.941,7.755Zm-98.783,-20.873c30.319,-8.319 61.865,-9.019 92.519,-2.036c2.107,-8.633 6,-14.904 11.697,-18.354c4.395,-2.664 9.68,-3.446 15.354,-2.181c2.578,-18.518 5.166,-37.028 7.768,-55.531c-9.18,-5.295 -16.113,-11.519 -20.656,-19.332c-3.488,-5.991 -4.832,-11.783 -5.117,-16.671c-37.375,-9.631 -76.131,-9.833 -113.637,-0.572c-0.75,9.6 -3.851,17.748 -9.094,24.634c-4.038,5.302 -9.197,9.606 -15.156,12.849c2.806,19.321 5.612,38.642 8.418,57.962c8.714,-1.792 15.829,0.241 20.949,5.447c3.932,4.004 5.935,9.113 6.955,13.785Z"></path></g><path fill="#F56060" d="M69.982,39.729c27.593,-4.648 55.643,-4.234 83.114,1.23c-0.34,5.277 -0.68,10.555 -1.02,15.833c-26.787,-5.227 -54.116,-5.529 -80.985,-0.902c-0.369,-5.388 -0.738,-10.774 -1.109,-16.161Z"></path><path opacity="0.34" fill="#191919" d="M32.795,84.652c15.378,-5.77 31.113,-9.775 46.987,-12.017c0.201,3.592 0.401,7.184 0.602,10.776c-15.581,2.244 -31.021,6.219 -46.106,11.924c-0.494,-3.562 -0.989,-7.123 -1.483,-10.683Z"></path><path opacity="0.34" fill="#191919" d="M35.414,103.519c47.492,-18.077 98.602,-18.74 146.422,-1.945c-0.418,3.435 -0.836,6.87 -1.254,10.305c-46.977,-16.348 -97.13,-15.55 -143.686,2.323c-0.493,-3.561 -0.988,-7.122 -1.482,-10.683Z"></path><path opacity="0.34" fill="#191919" d="M38.426,125.219c10.349,-4.009 20.881,-7.156 31.521,-9.44c0.281,3.59 0.562,7.179 0.843,10.769c-10.426,2.272 -20.746,5.392 -30.881,9.354c-0.494,-3.561 -0.988,-7.122 -1.483,-10.683Z"></path><path opacity="0.34" fill="#191919" d="M84.672,113.176c4.926,-0.686 9.867,-1.188 14.816,-1.509c0.086,3.586 0.172,7.172 0.258,10.759c-4.852,0.329 -9.696,0.838 -14.524,1.524c-0.183,-3.591 -0.367,-7.182 -0.55,-10.774Z"></path><path fill="#191919" d="M131.786,136.474h30.025v10h-30.025Z"></path><path fill="#F25A70" d="M168.398,178.966c0.641,12.228 1.783,24.447 3.429,36.628c5.447,-7.605 10.859,-14.881 16.217,-21.843c6.883,4.982 14.074,9.628 21.551,13.913c-2.295,-10.867 -4.141,-21.825 -5.531,-32.845"></path><path fill="#F25A70" d="M173.384,226.56c-1.419,0.331 -2.892,0.398 -4.337,0.16c-4.431,-0.717 -7.688,-4.229 -8.211,-8.811c-1.457,-12.563 -2.396,-25.152 -2.818,-37.733c-0.189,-6.284 4.34,-11.754 9.938,-12.218c0.019,-0.002 0.035,-0.003 0.052,-0.004c5.581,-0.434 10.319,3.947 10.767,9.801c0.237,3.274 0.511,6.547 0.822,9.816c0.037,-0.047 0.074,-0.094 0.111,-0.141c3.74,-4.76 10.309,-5.519 14.918,-2.115c0.047,0.034 0.095,0.069 0.143,0.104c-0.395,-3.129 -0.754,-6.261 -1.078,-9.396c-0.563,-5.686 3.649,-10.678 9.242,-11.138c0.018,-0.001 0.036,-0.003 0.053,-0.004c5.578,-0.431 10.627,3.483 11.447,8.737c1.609,10.669 3.658,21.26 6.145,31.745c0.909,3.808 -0.906,7.832 -4.707,10.31c-3.795,2.468 -8.82,2.83 -12.604,0.694c-4.461,-2.51 -8.822,-5.146 -13.082,-7.905c-3.116,4.244 -6.247,8.599 -9.389,13.068c-1.794,2.552 -4.486,4.345 -7.412,5.03Z"></path><path fill="#FFD81F" d="M190.633,71.214c21.391,4.917 38.02,29.211 40.687,53.677c2.467,24.334 -16.183,46.501 -45.136,50.34c-28.846,3.865 -52.035,-20.615 -47.005,-53.878c5.019,-33.139 30.171,-55.074 51.454,-50.139Z"></path><path fill="#FFD81F" d="M187.135,185.689c-35.316,5.933 -64.168,-23.688 -57.225,-64.692c6.947,-40.788 38.136,-66.898 62.569,-60.151c24.586,6.714 43.949,36.082 48.109,64.401c3.839,28.094 -17.982,54.553 -53.453,60.442Zm1.907,-104.074c-17.68,-3.36 -37.203,14.358 -40.591,40.094c-3.409,25.797 14.534,45.301 37.038,43.049c22.572,-2.238 37.94,-20.101 36.561,-40.223c-1.499,-20.192 -15.26,-39.569 -33.008,-42.92Z"></path><path fill="#DB9200" d="M214.011,115.078c-6.361,-0.429 -12.722,-0.857 -19.083,-1.286c-2.799,-7.895 -5.197,-15.993 -7.18,-24.261c-3.732,7.473 -7.437,15.145 -11.095,23.029c-6.36,-0.429 -12.722,-0.857 -19.081,-1.286c4.528,6.286 9.393,12.348 14.579,18.161c-2.015,7.718 -3.909,15.55 -5.677,23.497c6.135,-4.967 12.174,-9.698 18.107,-14.205c6.348,4.225 12.941,8.221 19.768,11.971c-2.467,-7.476 -4.624,-15.105 -6.462,-22.865c5.488,-4.466 10.865,-8.713 16.124,-12.755Z"></path></g></svg>