<?xml version="1.0" encoding="UTF-8"?><svg id="Layer_1" xmlns="http://www.w3.org/2000/svg" xmlns:xlink="http://www.w3.org/1999/xlink" viewBox="0 0 48 48"><defs><style>.cls-1{fill:url(#linear-gradient);}.cls-2{fill:url(#linear-gradient-3);}.cls-3{fill:url(#linear-gradient-4);}.cls-4{fill:url(#linear-gradient-2);}.cls-5{fill:url(#linear-gradient-6);}.cls-6{fill:url(#linear-gradient-7);}.cls-7{fill:url(#linear-gradient-5);}.cls-8{fill:url(#radial-gradient);}</style><linearGradient id="linear-gradient" x1="4.79" y1="6.684" x2="44.433" y2="38.291" gradientTransform="matrix(1, 0, 0, 1, 0, 0)" gradientUnits="userSpaceOnUse"><stop offset="0" stop-color="#edf1f2"/><stop offset="1" stop-color="#c6cbcc"/></linearGradient><linearGradient id="linear-gradient-2" x1="8.288" y1="8.931" x2="39.038" y2="29.074" gradientTransform="matrix(1, 0, 0, 1, 0, 0)" gradientUnits="userSpaceOnUse"><stop offset="0" stop-color="#c6cbcc"/><stop offset="1" stop-color="#9fa5a6"/></linearGradient><linearGradient id="linear-gradient-3" x1="8.09" y1="9.233" x2="38.84" y2="29.376" xlink:href="#linear-gradient-2"/><linearGradient id="linear-gradient-4" x1="4.147" y1="15.253" x2="34.897" y2="35.396" xlink:href="#linear-gradient-2"/><linearGradient id="linear-gradient-5" x1="1.554" y1="19.21" x2="32.304" y2="39.353" xlink:href="#linear-gradient-2"/><radialGradient id="radial-gradient" cx="35.379" cy="36.595" fx="35.379" fy="36.595" r="2.223" gradientTransform="matrix(1, 0, 0, 1, 0, 0)" gradientUnits="userSpaceOnUse"><stop offset="0" stop-color="#e85155"/><stop offset="1" stop-color="#c21d2c"/></radialGradient><linearGradient id="linear-gradient-6" x1="30.05" y1="25.05" x2="39.95" y2="34.95" gradientTransform="matrix(1, 0, 0, 1, 0, 0)" gradientUnits="userSpaceOnUse"><stop offset="0" stop-color="#fed200"/><stop offset="1" stop-color="#f59815"/></linearGradient><linearGradient id="linear-gradient-7" x1="32.172" y1="27.172" x2="37.828" y2="32.828" gradientTransform="matrix(1, 0, 0, 1, 0, 0)" gradientUnits="userSpaceOnUse"><stop offset="0" stop-color="#f59815"/><stop offset="1" stop-color="#fed200"/></linearGradient></defs><rect class="cls-1" x="2" y="6" width="44" height="32" rx="5" ry="5"/><path class="cls-4" d="M20,14H9c-.552,0-1-.448-1-1s.448-1,1-1h11c.552,0,1,.448,1,1s-.448,1-1,1Z"/><path class="cls-2" d="M38,19c0-.552-.448-1-1-1H9c-.552,0-1,.448-1,1s.448,1,1,1h28c.552,0,1-.448,1-1Z"/><path class="cls-3" d="M27,24c0-.552-.448-1-1-1H9c-.552,0-1,.448-1,1s.448,1,1,1H26c.552,0,1-.448,1-1Z"/><path class="cls-7" d="M24,30c.552,0,1-.448,1-1s-.448-1-1-1H9c-.552,0-1,.448-1,1s.448,1,1,1h15Z"/><path class="cls-8" d="M38,30.19h-6c-.552,0-1,.448-1,1v10.81c0,.369,.203,.708,.528,.882,.323,.173,.719,.153,1.026-.05l2.445-1.63,2.445,1.63c.167,.112,.361,.168,.555,.168,.162,0,.324-.039,.472-.118,.325-.174,.528-.513,.528-.882v-10.81c0-.552-.448-1-1-1Z"/><circle class="cls-5" cx="35" cy="30" r="7"/><circle class="cls-6" cx="35" cy="30" r="4"/></svg>