<?xml version="1.0" encoding="utf-8"?>
<!-- Generator: Adobe Illustrator 25.4.1, SVG Export Plug-In . SVG Version: 6.00 Build 0)  -->
<svg version="1.1" id="COLOR" xmlns="http://www.w3.org/2000/svg" xmlns:xlink="http://www.w3.org/1999/xlink" x="0px" y="0px"
	 viewBox="0 0 64 64" enable-background="new 0 0 64 64" xml:space="preserve">
<path fill="#605979" d="M56,43c1.1,0,2,0.9,2,2c0,0.55-0.22,1.05-0.59,1.41C57.05,46.78,56.55,47,56,47h-9H19h-9c-1.1,0-2-0.9-2-2V5
	H7C5.9,5,5,5.9,5,7c0,0.55-0.22,1.05-0.59,1.41C4.05,8.78,3.55,9,3,9S1.95,8.78,1.59,8.41C1.22,8.05,1,7.55,1,7
	c0-1.66,0.67-3.16,1.76-4.24C3.84,1.67,5.34,1,7,1h3c1.1,0,2,0.9,2,2v38c0,1.1,0.9,2,2,2h3H56z"/>
<path fill="#524B75" d="M58,45c0,0.55-0.22,1.05-0.59,1.41C57.05,46.78,56.55,47,56,47H10c-1.1,0-2-0.9-2-2h46
	c0.55,0,1.05-0.22,1.41-0.59C55.78,44.05,56,43.55,56,43C57.1,43,58,43.9,58,45z"/>
<path fill="#524B75" d="M52,52v1.41C51.39,53.15,50.71,53,50,53s-1.39,0.15-2,0.41V52c0-0.54-0.46-1-1-1H19c-0.54,0-1,0.46-1,1v1.41
	C17.39,53.15,16.71,53,16,53c-0.71,0-1.39,0.15-2,0.41V52c0-2.76,2.24-5,5-5h28C49.76,47,52,49.24,52,52z"/>
<path fill="#3C3666" d="M52,52v1.41c-0.01-0.01-0.03-0.01-0.04-0.02C51.66,50.92,49.55,49,47,49H19c-2.55,0-4.66,1.92-4.96,4.39
	c-0.01,0.01-0.03,0.01-0.04,0.02V52c0-2.76,2.24-5,5-5h28C49.76,47,52,49.24,52,52z"/>
<circle fill="#3D3F42" cx="50" cy="58" r="2"/>
<circle fill="#3D3F42" cx="16" cy="58" r="2"/>
<path fill="#53565C" d="M52,53.42c1.76,0.77,3,2.53,3,4.58c0,2.76-2.24,5-5,5s-5-2.24-5-5c0-2.05,1.24-3.81,3-4.58v-0.01
	c0.61-0.26,1.29-0.41,2-0.41s1.39,0.15,2,0.41V53.42z M52,58c0-1.1-0.9-2-2-2s-2,0.9-2,2s0.9,2,2,2S52,59.1,52,58z"/>
<path fill="#53565C" d="M18,53.42c1.76,0.77,3,2.53,3,4.58c0,2.76-2.24,5-5,5s-5-2.24-5-5c0-2.05,1.24-3.81,3-4.58v-0.01
	c0.61-0.26,1.29-0.41,2-0.41c0.71,0,1.39,0.15,2,0.41V53.42z M18,58c0-1.1-0.9-2-2-2s-2,0.9-2,2s0.9,2,2,2S18,59.1,18,58z"/>
<path fill="#E89A10" d="M63,24v18c0,0.55-0.45,1-1,1h-6H17c-0.55,0-1-0.45-1-1V24c0-0.55,0.45-1,1-1h20v5h5v-5h1h11h8
	C62.55,23,63,23.45,63,24z M60,40v-4h-5v4H60z"/>
<path fill="#C97700" d="M62,23h-1.503c0.028,4.867-0.237,9.492-2.703,13H60v4h-5v-1.36c-5.351,3.248-12.686,3.558-20.101,4.36H56h6
	c0.55,0,1-0.45,1-1V24C63,23.45,62.55,23,62,23z"/>
<rect x="55" y="36" fill="#EAE8E8" width="5" height="4"/>
<path fill="#E89A10" d="M55,12v10c0,0.55-0.45,1-1,1H43c-0.55,0-1-0.45-1-1v-6v-4c0-0.55,0.45-1,1-1h4v3h3v-3h4
	C54.55,11,55,11.45,55,12z"/>
<path fill="#C97700" d="M54,11h-0.492c-0.538,4.461-1.322,9.342-4.113,12H54c0.55,0,1-0.45,1-1V12C55,11.45,54.55,11,54,11z"/>
<rect x="47" y="11" fill="#EAE8E8" width="3" height="3"/>
<polygon fill="#EAE8E8" points="42,23 42,28 37,28 37,23 41,23 "/>
<path fill="#E89A10" d="M41,1H31v5h-4V1H17c-0.55,0-1,0.45-1,1v20c0,0.55,0.45,1,1,1h20h4c0.55,0,1-0.45,1-1v-6v-4V2
	C42,1.45,41.55,1,41,1z M39,20h-2h-2v-4h4V20z"/>
<path fill="#C97700" d="M41,1h-2.319c-1.025,8.324-3.499,17.89-10.774,22H37h4c0.55,0,1-0.45,1-1v-6v-4V2C42,1.45,41.55,1,41,1z
	 M39,20h-2h-2v-4h4V20z"/>
<polygon fill="#EAE8E8" points="39,16 39,20 37,20 35,20 35,16 "/>
<rect x="27" y="1" fill="#EAE8E8" width="4" height="5"/>
<g>
	<path fill="#472B3C" d="M28,35h-8c-0.552,0-1,0.448-1,1s0.448,1,1,1h8c0.552,0,1-0.448,1-1S28.552,35,28,35z"/>
	<path fill="#472B3C" d="M28,38h-8c-0.552,0-1,0.448-1,1s0.448,1,1,1h8c0.552,0,1-0.448,1-1S28.552,38,28,38z"/>
	<path fill="#472B3C" d="M19,17h8c0.552,0,1-0.448,1-1s-0.448-1-1-1h-8c-0.552,0-1,0.448-1,1S18.448,17,19,17z"/>
	<path fill="#472B3C" d="M19,20h8c0.552,0,1-0.448,1-1s-0.448-1-1-1h-8c-0.552,0-1,0.448-1,1S18.448,20,19,20z"/>
	<path fill="#472B3C" d="M47,21c0.553,0,1-0.448,1-1s-0.447-1-1-1h-2c-0.553,0-1,0.448-1,1s0.447,1,1,1H47z"/>
	<path fill="#472B3C" d="M16,55c-1.654,0-3,1.346-3,3s1.346,3,3,3s3-1.346,3-3S17.654,55,16,55z M16,59c-0.551,0-1-0.449-1-1
		s0.449-1,1-1s1,0.449,1,1S16.551,59,16,59z"/>
	<path fill="#472B3C" d="M50,55c-1.654,0-3,1.346-3,3s1.346,3,3,3s3-1.346,3-3S51.654,55,50,55z M50,59c-0.552,0-1-0.449-1-1
		s0.448-1,1-1s1,0.449,1,1S50.552,59,50,59z"/>
	<path fill="#472B3C" d="M62,22h-6V12c0-1.103-0.897-2-2-2h-9c-0.553,0-1,0.448-1,1s0.447,1,1,1h1v2c0,0.552,0.447,1,1,1h3
		c0.553,0,1-0.448,1-1v-2h3v10H43V2c0-1.103-0.897-2-2-2H17c-1.103,0-2,0.897-2,2v3.562c0,0.552,0.448,1,1,1s1-0.448,1-1V2h9v4
		c0,0.552,0.448,1,1,1h4c0.552,0,1-0.448,1-1V2h9v20H17V8.5c0-0.552-0.448-1-1-1s-1,0.448-1,1V22c0,0.366,0.106,0.705,0.278,1
		C15.106,23.295,15,23.634,15,24v18h-1c-0.551,0-1-0.449-1-1V3c0-1.654-1.346-3-3-3H7C3.14,0,0,3.14,0,7c0,1.654,1.346,3,3,3
		s3-1.346,3-3c0-0.551,0.449-1,1-1v39c0,1.654,1.346,3,3,3h4.542c-0.421,0.469-0.779,1.001-1.041,1.599
		c-0.222,0.506,0.009,1.096,0.515,1.317c0.505,0.222,1.095-0.007,1.317-0.515C15.973,48.943,17.412,48,19,48h28c2.206,0,4,1.794,4,4
		v0.09C50.674,52.035,50.341,52,50,52s-0.674,0.035-1,0.09V52c0-1.103-0.897-2-2-2H19c-1.103,0-2,0.897-2,2v0.09
		C16.674,52.035,16.341,52,16,52c-3.309,0-6,2.691-6,6s2.691,6,6,6s6-2.691,6-6c0-2.215-1.21-4.149-3-5.188V52h28v0.812
		c-1.79,1.039-3,2.973-3,5.188c0,3.309,2.691,6,6,6s6-2.691,6-6c0-2.215-1.21-4.149-3-5.188V52c0-1.538-0.586-2.937-1.54-4H56
		c1.654,0,3-1.346,3-3c0-0.352-0.072-0.686-0.184-1H62c1.103,0,2-0.897,2-2V24C64,22.897,63.103,22,62,22z M49,13h-1v-1h1V13z M30,5
		h-2V2h2V5z M16,62c-2.206,0-4-1.794-4-4s1.794-4,4-4s4,1.794,4,4S18.206,62,16,62z M50,62c-2.206,0-4-1.794-4-4s1.794-4,4-4
		s4,1.794,4,4S52.206,62,50,62z M57,45c0,0.551-0.448,1-1,1H10c-0.551,0-1-0.449-1-1V5c0-0.552-0.448-1-1-1H7C5.346,4,4,5.346,4,7
		c0,0.551-0.449,1-1,1S2,7.551,2,7c0-2.757,2.243-5,5-5h3c0.551,0,1,0.449,1,1v38c0,1.654,1.346,3,3,3h42C56.552,44,57,44.449,57,45
		z M17,42V24h24v3h-3v-1c0-0.552-0.447-1-1-1s-1,0.448-1,1v2c0,0.552,0.447,1,1,1h5c0.553,0,1-0.448,1-1v-4h19l0.001,18H17z"/>
	<path fill="#472B3C" d="M60,35h-5c-0.553,0-1,0.448-1,1v4c0,0.552,0.447,1,1,1h5c0.553,0,1-0.448,1-1v-4C61,35.448,60.553,35,60,35
		z M59,39h-3v-2h3V39z"/>
	<path fill="#472B3C" d="M39,21c0.553,0,1-0.448,1-1v-4c0-0.552-0.447-1-1-1h-4c-0.553,0-1,0.448-1,1v4c0,0.552,0.447,1,1,1H39z
		 M36,17h2v2h-2V17z"/>
</g>
</svg>
