<?xml version="1.0" encoding="UTF-8" standalone="no"?> <svg id="Layer_1" data-name="Layer 1" xmlns="http://www.w3.org/2000/svg" viewBox="0 0 64 64"><defs><style>.cls-1{fill:#fca219;}.cls-2{fill:#e91d18;}.cls-3{fill:#db890b;}.cls-4{fill:#e89517;}.cls-5{fill:#1787ce;}</style></defs><title>professional-expert-leader-pro-master</title><path class="cls-1" d="M36,36H34.62a4.00006,4.00006,0,1,0-5.24,0H28a2.996,2.996,0,0,0-3,3v6l2,1v8H37V46l2-1V39A2.996,2.996,0,0,0,36,36Z"/><polygon class="cls-2" points="32 13 33.652 18.833 39 18.833 34.674 21.652 36.326 27 32 23.695 27.674 27 29.326 21.652 25 18.833 30.348 18.833 32 13"/><polygon class="cls-3" points="30 40 31 40 31 44 33 44 33 40 34 40 34 38 30 38 30 40"/><rect class="cls-1" x="41" y="18" width="3" height="2"/><rect class="cls-1" x="20" y="18" width="3" height="2"/><rect class="cls-1" x="21.59" y="26.91026" width="2.99968" height="1.99979" transform="translate(-12.9726 24.50168) rotate(-45)"/><rect class="cls-1" x="39.91026" y="26.41032" width="1.99979" height="2.99968" transform="translate(-7.75315 37.10254) rotate(-45)"/><path class="cls-4" d="M30.35022,54H37V48.97272A15.01608,15.01608,0,0,1,30.35022,54Z"/><path class="cls-5" d="M62,35.094V28.90611l-4.65637-1.2267a25.91925,25.91925,0,0,0-1.26646-4.7696l3.14449-3.23661a30.15665,30.15665,0,0,0-3.07807-5.34954l-4.3586,1.1219a26.08259,26.08259,0,0,0-3.47219-3.49049l1.11606-4.38148a29.91905,29.91905,0,0,0-5.32174-3.09444L40.88712,7.64a25.57282,25.57282,0,0,0-4.745-1.27328L34.92173,2H28.766l-1.2203,4.3667a25.57014,25.57014,0,0,0-4.74477,1.27309L19.58116,4.47884A29.92411,29.92411,0,0,0,14.25954,7.573l1.116,4.38142a26.08192,26.08192,0,0,0-3.47231,3.49036L7.54462,14.3229a30.1512,30.1512,0,0,0-3.07838,5.3496L7.6106,22.9093A25.92165,25.92165,0,0,0,6.344,27.67922L2,28.906v6.18785l4.344,1.22669a25.9211,25.9211,0,0,0,1.26639,4.76967L4.46593,44.32687A30.16061,30.16061,0,0,0,7.544,49.67634L11.9026,48.5545A26.08252,26.08252,0,0,0,15.37478,52.045l-1.11606,4.38142a29.923,29.923,0,0,0,5.32174,3.0945l3.21994-3.16082a25.57414,25.57414,0,0,0,4.74515,1.27328L28.76585,62h6.15563l1.22024-4.36657a25.56873,25.56873,0,0,0,4.745-1.27315l3.21975,3.16095A29.91611,29.91611,0,0,0,49.428,56.427l-1.116-4.38136a26.08251,26.08251,0,0,0,3.47231-3.49036l4.3586,1.1219a30.1468,30.1468,0,0,0,3.07838-5.34966L56.077,41.0907a25.918,25.918,0,0,0,1.26659-4.77ZM31.84379,53.68081A21.83817,21.83817,0,1,1,53.56793,31.84294,21.78125,21.78125,0,0,1,31.84379,53.68081Z"/></svg>