<svg width="24" height="24" viewBox="0 0 24 24" fill="none" xmlns="http://www.w3.org/2000/svg">
<path d="M20.63 18.88V4.94H9.67999L3.09999 5.16V18.88H20.63Z" fill="#EAE2F9"/>
<path d="M6.14 3.46C5.29109 3.46001 4.46127 3.71186 3.75556 4.1837C3.04986 4.65553 2.50001 5.32613 2.17561 6.11061C1.8512 6.89509 1.76683 7.75817 1.93317 8.59063C2.09952 9.42308 2.50909 10.1875 3.11006 10.787C3.71103 11.3866 4.47637 11.7944 5.30921 11.9588C6.14204 12.1232 7.00493 12.0368 7.78865 11.7106C8.57237 11.3843 9.24168 10.8329 9.71187 10.1261C10.1821 9.41932 10.432 8.58891 10.43 7.74C10.43 7.1771 10.319 6.61973 10.1032 6.09981C9.88753 5.57988 9.57137 5.10761 9.17288 4.71005C8.77439 4.31248 8.30138 3.99743 7.78095 3.78292C7.26052 3.56842 6.70289 3.45869 6.14 3.46V3.46ZM6.14 6.09H6.19C6.62008 6.0966 7.03013 6.27293 7.33076 6.58056C7.6314 6.88819 7.79825 7.30219 7.79495 7.73231C7.79165 8.16244 7.61847 8.57382 7.31315 8.87681C7.00784 9.17979 6.59513 9.34981 6.165 9.34981C5.73486 9.34981 5.32216 9.17979 5.01684 8.87681C4.71152 8.57382 4.53834 8.16244 4.53504 7.73231C4.53175 7.30219 4.6986 6.88819 4.99923 6.58056C5.29986 6.27293 5.70991 6.0966 6.14 6.09" fill="#F94060"/>
<path d="M20.63 18.88V4.94H19.45L18.74 5.16V18.88H20.63Z" fill="#C0C3EE"/>
<path d="M14.27 13H17.27C17.5724 13 17.8623 13.1201 18.0761 13.3339C18.2899 13.5477 18.41 13.8377 18.41 14.14C18.41 14.4423 18.2899 14.7323 18.0761 14.9461C17.8623 15.1599 17.5724 15.28 17.27 15.28H14.27C13.9677 15.28 13.6777 15.1599 13.4639 14.9461C13.2501 14.7323 13.13 14.4423 13.13 14.14C13.13 13.8377 13.2501 13.5477 13.4639 13.3339C13.6777 13.1201 13.9677 13 14.27 13" fill="#96CCEE"/>
<path d="M1.86 17.1V19.19C1.86 19.3681 1.89524 19.5445 1.96371 19.7089C2.03218 19.8734 2.13252 20.0227 2.25894 20.1482C2.38536 20.2736 2.53536 20.3729 2.70031 20.4401C2.86525 20.5074 3.04188 20.5413 3.22 20.54H20.51C20.6877 20.5413 20.8638 20.5073 21.0282 20.44C21.1926 20.3726 21.3419 20.2732 21.4676 20.1476C21.5932 20.0219 21.6926 19.8726 21.7599 19.7082C21.8273 19.5438 21.8613 19.3677 21.86 19.19V17.1H15.31V18.41H8.41V17.1H1.86Z" fill="#9293A5"/>
<path d="M19.74 17.1V19.19C19.7413 19.3677 19.7073 19.5438 19.6399 19.7082C19.5726 19.8726 19.4732 20.0219 19.3476 20.1476C19.2219 20.2732 19.0726 20.3726 18.9082 20.44C18.7438 20.5073 18.5677 20.5413 18.39 20.54H20.51C20.6877 20.5413 20.8638 20.5073 21.0282 20.44C21.1926 20.3726 21.3419 20.2732 21.4676 20.1476C21.5932 20.0219 21.6926 19.8726 21.7599 19.7082C21.8273 19.5438 21.8613 19.3677 21.86 19.19V17.1H19.74Z" fill="#6F7188"/>
<path d="M6.14 3.45999C5.8888 3.46009 5.63801 3.48015 5.39 3.51999C6.39351 3.68244 7.30643 4.19677 7.96533 4.9709C8.62422 5.74504 8.98606 6.72842 8.98606 7.74499C8.98606 8.76156 8.62422 9.74495 7.96533 10.5191C7.30643 11.2932 6.39351 11.8075 5.39 11.97C5.62793 12.0098 5.86875 12.0299 6.11 12.03C7.21065 11.9768 8.24862 11.5021 9.00877 10.7044C9.76892 9.9066 10.1929 8.84692 10.1929 7.74499C10.1929 6.64306 9.76892 5.58338 9.00877 4.78562C8.24862 3.98785 7.21065 3.51318 6.11 3.45999H6.14Z" fill="#D62657"/>
<path d="M3.22 21H20.51C21.0006 21 21.4712 20.8051 21.8181 20.4581C22.1651 20.1112 22.36 19.6406 22.36 19.15V17.1C22.36 16.9674 22.3073 16.8402 22.2136 16.7464C22.1198 16.6527 21.9926 16.6 21.86 16.6H21.12V4.93999C21.12 4.80738 21.0673 4.68021 20.9736 4.58644C20.8798 4.49267 20.7526 4.43999 20.62 4.43999H9.68H9.61C9.16072 3.97833 8.62242 3.61267 8.02768 3.36515C7.43294 3.11762 6.79415 2.9934 6.15 2.99999V2.99999C5.21894 2.98959 4.30527 3.25249 3.52213 3.75614C2.73898 4.25979 2.12074 4.98207 1.74396 5.83355C1.36718 6.68503 1.24841 7.62831 1.40234 8.54662C1.55627 9.46493 1.97615 10.3179 2.61 11V16.6H1.86C1.72819 16.6026 1.6025 16.6561 1.50928 16.7493C1.41606 16.8425 1.36256 16.9682 1.36 17.1V19.19C1.37049 19.6754 1.57139 20.1373 1.91936 20.4759C2.26733 20.8145 2.73447 21.0027 3.22 21V21ZM20.12 5.39999V16.6H15.31C15.1782 16.6026 15.0525 16.6561 14.9593 16.7493C14.8661 16.8425 14.8126 16.9682 14.81 17.1V17.91H8.91V17.1C8.91 16.9674 8.85732 16.8402 8.76355 16.7464C8.66978 16.6527 8.54261 16.6 8.41 16.6H3.6V11.78C4.36107 12.2681 5.24586 12.5283 6.15 12.53C6.65711 12.5208 7.15974 12.4331 7.64 12.27L8.88 14.42C8.92508 14.4943 8.98805 14.5561 9.06317 14.5997C9.13828 14.6434 9.22314 14.6676 9.31 14.67H12.71C12.8172 14.9999 13.0256 15.2876 13.3057 15.4922C13.5857 15.6969 13.9231 15.8081 14.27 15.81H17.27C17.705 15.81 18.1221 15.6372 18.4297 15.3296C18.7372 15.0221 18.91 14.6049 18.91 14.17C18.91 13.735 18.7372 13.3179 18.4297 13.0103C18.1221 12.7028 17.705 12.53 17.27 12.53H14.27C13.9231 12.5319 13.5857 12.6431 13.3057 12.8478C13.0256 13.0524 12.8172 13.3401 12.71 13.67H9.6L8.6 11.85C9.68146 11.2315 10.4738 10.2098 10.8037 9.00844C11.1335 7.80709 10.974 6.52398 10.36 5.43999L20.12 5.39999ZM13.63 14.12C13.63 14.0364 13.6466 13.9537 13.6789 13.8766C13.7112 13.7995 13.7585 13.7296 13.818 13.6709C13.8776 13.6123 13.9482 13.5661 14.0258 13.535C14.1034 13.504 14.1864 13.4887 14.27 13.49H17.27C17.4397 13.49 17.6025 13.5574 17.7225 13.6774C17.8426 13.7975 17.91 13.9603 17.91 14.13C17.91 14.2997 17.8426 14.4625 17.7225 14.5825C17.6025 14.7026 17.4397 14.77 17.27 14.77H14.27C14.1003 14.77 13.9375 14.7026 13.8174 14.5825C13.6974 14.4625 13.63 14.2997 13.63 14.13V14.13V14.12ZM6.64 3.99999C7.46095 4.10919 8.22309 4.48567 8.8087 5.07128C9.39432 5.6569 9.7708 6.41904 9.88 7.23999H8.23C8.13446 6.8555 7.93596 6.50431 7.65582 6.22417C7.37568 5.94403 7.02449 5.74552 6.64 5.64999V3.99999ZM6.14 6.57999C6.445 6.57999 6.7375 6.70115 6.95317 6.91682C7.16884 7.13249 7.29 7.42499 7.29 7.72999C7.29 8.03499 7.16884 8.3275 6.95317 8.54316C6.7375 8.75883 6.445 8.87999 6.14 8.87999C5.835 8.87999 5.54249 8.75883 5.32682 8.54316C5.11116 8.3275 4.99 8.03499 4.99 7.72999C4.99 7.42499 5.11116 7.13249 5.32682 6.91682C5.54249 6.70115 5.835 6.57999 6.14 6.57999V6.57999V6.57999ZM2.36 7.73999C2.35952 6.82466 2.69207 5.94041 3.2956 5.25223C3.89914 4.56406 4.73243 4.11896 5.64 3.99999V5.64999C5.26796 5.73869 4.92632 5.92503 4.65031 6.18978C4.37429 6.45454 4.1739 6.78813 4.0698 7.15615C3.96569 7.52417 3.96164 7.9133 4.05806 8.28341C4.15449 8.65352 4.34789 8.99121 4.61834 9.26165C4.88878 9.5321 5.22647 9.7255 5.59658 9.82193C5.96669 9.91835 6.35582 9.9143 6.72384 9.81019C7.09186 9.70609 7.42545 9.5057 7.69021 9.22968C7.95496 8.95367 8.1413 8.61203 8.23 8.23999H9.88C9.74249 9.18108 9.25529 10.0357 8.51555 10.6335C7.77581 11.2313 6.83792 11.5283 5.88894 11.4652C4.93995 11.4021 4.04963 10.9836 3.39555 10.2931C2.74146 9.60265 2.3717 8.691 2.36 7.73999V7.73999ZM2.36 17.6H7.91V18.41C7.91256 18.5418 7.96606 18.6675 8.05928 18.7607C8.1525 18.8539 8.27819 18.9074 8.41 18.91H15.31C15.4426 18.91 15.5698 18.8573 15.6636 18.7635C15.7573 18.6698 15.81 18.5426 15.81 18.41V17.6H21.36V19.19C21.36 19.4154 21.2704 19.6316 21.111 19.791C20.9516 19.9504 20.7354 20.04 20.51 20.04H3.22C3.10754 20.0413 2.99593 20.0203 2.89164 19.9782C2.78736 19.9361 2.69247 19.8737 2.61248 19.7946C2.53249 19.7155 2.46898 19.6214 2.42564 19.5176C2.3823 19.4138 2.35999 19.3025 2.36 19.19V17.6Z" fill="black"/>
<path d="M17.26 10.31H13.54C13.4074 10.31 13.2802 10.3627 13.1864 10.4564C13.0927 10.5502 13.04 10.6774 13.04 10.81C13.04 10.9426 13.0927 11.0698 13.1864 11.1636C13.2802 11.2573 13.4074 11.31 13.54 11.31H17.26C17.3926 11.31 17.5198 11.2573 17.6135 11.1636C17.7073 11.0698 17.76 10.9426 17.76 10.81C17.7574 10.6782 17.7039 10.5525 17.6107 10.4593C17.5175 10.3661 17.3918 10.3126 17.26 10.31V10.31Z" fill="black"/>
<path d="M13.54 9.75998H15.84C15.9726 9.75998 16.0998 9.7073 16.1935 9.61353C16.2873 9.51976 16.34 9.39259 16.34 9.25998C16.34 9.12737 16.2873 9.00019 16.1935 8.90643C16.0998 8.81266 15.9726 8.75998 15.84 8.75998H13.54C13.4074 8.75998 13.2802 8.81266 13.1864 8.90643C13.0927 9.00019 13.04 9.12737 13.04 9.25998C13.04 9.39259 13.0927 9.51976 13.1864 9.61353C13.2802 9.7073 13.4074 9.75998 13.54 9.75998Z" fill="black"/>
<path d="M13.54 8.20999H17.26C17.3926 8.20999 17.5198 8.15731 17.6135 8.06355C17.7073 7.96978 17.76 7.8426 17.76 7.70999C17.76 7.57738 17.7073 7.45021 17.6135 7.35644C17.5198 7.26267 17.3926 7.20999 17.26 7.20999H13.54C13.4074 7.20999 13.2802 7.26267 13.1864 7.35644C13.0927 7.45021 13.04 7.57738 13.04 7.70999C13.04 7.8426 13.0927 7.96978 13.1864 8.06355C13.2802 8.15731 13.4074 8.20999 13.54 8.20999Z" fill="black"/>
</svg>
