<?xml version="1.0" encoding="UTF-8" standalone="no"?> <svg width="64" height="64" viewBox="0 0 64 64" fill="none" xmlns="http://www.w3.org/2000/svg">
<path d="M49 27C54.5228 27 59 22.5228 59 17C59 11.4772 54.5228 7 49 7C43.4772 7 39 11.4772 39 17C39 22.5228 43.4772 27 49 27Z" fill="#F9E109"/>
<path d="M58.11 21.11C57.4463 22.5872 56.4337 23.8812 55.1593 24.8805C53.885 25.8799 52.3869 26.5548 50.7941 26.8472C49.2012 27.1396 47.5612 27.0408 46.0149 26.5592C44.4687 26.0777 43.0625 25.2278 41.9174 24.0826C40.7722 22.9375 39.9224 21.5313 39.4408 19.9851C38.9592 18.4389 38.8604 16.7988 39.1528 15.206C39.4452 13.6131 40.1202 12.1151 41.1195 10.8407C42.1189 9.56634 43.4128 8.55375 44.89 7.89001C44.3017 9.18023 43.9982 10.582 44 12C44 14.6522 45.0536 17.1957 46.929 19.0711C48.8043 20.9464 51.3479 22 54 22C55.418 22.0018 56.8198 21.6983 58.11 21.11V21.11Z" fill="#FCBC04"/>
<path d="M49 22C49.5523 22 50 21.5523 50 21C50 20.4477 49.5523 20 49 20C48.4477 20 48 20.4477 48 21C48 21.5523 48.4477 22 49 22Z" fill="#57B7EB"/>
<path d="M51.828 19.1711C51.6966 19.1714 51.5665 19.1457 51.4452 19.0954C51.3238 19.0451 51.2136 18.9712 51.121 18.8781C50.5493 18.3331 49.7898 18.0291 49 18.0291C48.2102 18.0291 47.4507 18.3331 46.879 18.8781C46.7868 18.9736 46.6764 19.0497 46.5544 19.1022C46.4324 19.1546 46.3012 19.1822 46.1684 19.1833C46.0356 19.1845 45.904 19.1592 45.7811 19.1089C45.6582 19.0586 45.5465 18.9843 45.4526 18.8904C45.3587 18.7966 45.2845 18.6849 45.2342 18.562C45.1839 18.4391 45.1586 18.3074 45.1598 18.1747C45.1609 18.0419 45.1885 17.9107 45.2409 17.7886C45.2933 17.6666 45.3695 17.5563 45.465 17.4641C46.4027 16.5267 47.6742 16.0001 49 16.0001C50.3258 16.0001 51.5974 16.5267 52.535 17.4641C52.6748 17.6039 52.77 17.7821 52.8086 17.976C52.8472 18.17 52.8274 18.371 52.7517 18.5537C52.676 18.7364 52.5479 18.8926 52.3835 19.0025C52.2191 19.1123 52.0258 19.171 51.828 19.1711Z" fill="#57B7EB"/>
<path d="M54.657 16.343C54.3918 16.3429 54.1375 16.2375 53.95 16.05C52.6358 14.7398 50.8557 14.004 49 14.004C47.1442 14.004 45.3642 14.7398 44.05 16.05C43.8614 16.2321 43.6088 16.3329 43.3466 16.3306C43.0844 16.3284 42.8336 16.2232 42.6482 16.0378C42.4628 15.8524 42.3576 15.6016 42.3553 15.3394C42.353 15.0772 42.4538 14.8246 42.636 14.636C44.3251 12.9506 46.6138 12.004 49 12.004C51.3862 12.004 53.6749 12.9506 55.364 14.636C55.5038 14.7758 55.599 14.954 55.6376 15.1479C55.6761 15.3419 55.6563 15.5429 55.5807 15.7256C55.505 15.9083 55.3769 16.0645 55.2125 16.1744C55.048 16.2843 54.8547 16.3429 54.657 16.343V16.343Z" fill="#57B7EB"/>
<path d="M44.11 13.45C44.2085 14.1576 44.3863 14.852 44.64 15.52C44.4338 15.6857 44.2368 15.8626 44.05 16.05C43.8587 16.2138 43.6126 16.2994 43.3609 16.2897C43.1093 16.2799 42.8705 16.1756 42.6924 15.9975C42.5143 15.8194 42.41 15.5807 42.4003 15.329C42.3906 15.0773 42.4762 14.8313 42.64 14.64C43.0874 14.1934 43.5801 13.7946 44.11 13.45V13.45Z" fill="#4891D3"/>
<path d="M45.57 17.36C45.923 17.9313 46.339 18.4613 46.81 18.94C46.6137 19.119 46.3544 19.2127 46.089 19.2005C45.8236 19.1884 45.574 19.0712 45.395 18.875C45.216 18.6787 45.1222 18.4194 45.1344 18.154C45.1466 17.8887 45.2637 17.639 45.46 17.46C45.5 17.43 45.53 17.39 45.57 17.36Z" fill="#4891D3"/>
<path d="M49.98 21.15C49.9461 21.3858 49.8284 21.6015 49.6484 21.7576C49.4684 21.9137 49.2382 21.9998 49 22C48.7348 22 48.4804 21.8946 48.2929 21.7071C48.1054 21.5196 48 21.2652 48 21C48.0019 20.8559 48.0341 20.7138 48.0943 20.5828C48.1546 20.4519 48.2417 20.3351 48.35 20.24C48.8601 20.5993 49.4064 20.9043 49.98 21.15Z" fill="#4891D3"/>
<path d="M3 7V23C3 24.0609 3.42143 25.0783 4.17157 25.8284C4.92172 26.5786 5.93913 27 7 27H19L25 35V27H30C31.0609 27 32.0783 26.5786 32.8284 25.8284C33.5786 25.0783 34 24.0609 34 23V7C34 5.93913 33.5786 4.92172 32.8284 4.17157C32.0783 3.42143 31.0609 3 30 3H7C5.93913 3 4.92172 3.42143 4.17157 4.17157C3.42143 4.92172 3 5.93913 3 7V7Z" fill="#84D2F4"/>
<path d="M34 21V23C34 24.0609 33.5786 25.0783 32.8284 25.8284C32.0783 26.5786 31.0609 27 30 27H25V35L19 27H7C5.93913 27 4.92172 26.5786 4.17157 25.8284C3.42143 25.0783 3 24.0609 3 23V7C3 5.93913 3.42143 4.92172 4.17157 4.17157C4.92172 3.42143 5.93913 3 7 3H12V13C12 15.1217 12.8429 17.1566 14.3431 18.6569C15.8434 20.1571 17.8783 21 20 21H34Z" fill="#57B7EB"/>
<path d="M17 10H14V7H10V10H7V14H10V17H14V14H17V10Z" fill="#F9E109"/>
<path d="M17 12V14H14V17H10V14H7V10H10V7H12V10C12.0016 10.5299 12.2128 11.0377 12.5875 11.4125C12.9623 11.7872 13.4701 11.9984 14 12H17Z" fill="#FCBC04"/>
<path d="M10 17V14H7V10H10V7H12V13C11.9953 14.406 12.3683 15.7874 13.08 17H10Z" fill="#E59730"/>
<path d="M29 18C29.5523 18 30 17.5523 30 17C30 16.4477 29.5523 16 29 16C28.4477 16 28 16.4477 28 17C28 17.5523 28.4477 18 29 18Z" fill="#F9E109"/>
<path d="M19 22C19.5523 22 20 21.5523 20 21C20 20.4477 19.5523 20 19 20C18.4477 20 18 20.4477 18 21C18 21.5523 18.4477 22 19 22Z" fill="#F9E109"/>
<path d="M29 22C29.5523 22 30 21.5523 30 21C30 20.4477 29.5523 20 29 20C28.4477 20 28 20.4477 28 21C28 21.5523 28.4477 22 29 22Z" fill="#F9E109"/>
<path d="M8 22C8.55228 22 9 21.5523 9 21C9 20.4477 8.55228 20 8 20C7.44772 20 7 20.4477 7 21C7 21.5523 7.44772 22 8 22Z" fill="#FCBC04"/>
<path d="M25 18H20C19.7348 18 19.4804 17.8946 19.2929 17.7071C19.1054 17.5196 19 17.2652 19 17C19 16.7348 19.1054 16.4804 19.2929 16.2929C19.4804 16.1054 19.7348 16 20 16H25C25.2652 16 25.5196 16.1054 25.7071 16.2929C25.8946 16.4804 26 16.7348 26 17C26 17.2652 25.8946 17.5196 25.7071 17.7071C25.5196 17.8946 25.2652 18 25 18Z" fill="#F9E109"/>
<path d="M15 22H12C11.7348 22 11.4804 21.8946 11.2929 21.7071C11.1054 21.5196 11 21.2652 11 21C11 20.7348 11.1054 20.4804 11.2929 20.2929C11.4804 20.1054 11.7348 20 12 20H15C15.2652 20 15.5196 20.1054 15.7071 20.2929C15.8946 20.4804 16 20.7348 16 21C16 21.2652 15.8946 21.5196 15.7071 21.7071C15.5196 21.8946 15.2652 22 15 22Z" fill="#FCBC04"/>
<path d="M25 22H23C22.7348 22 22.4804 21.8946 22.2929 21.7071C22.1054 21.5196 22 21.2652 22 21C22 20.7348 22.1054 20.4804 22.2929 20.2929C22.4804 20.1054 22.7348 20 23 20H25C25.2652 20 25.5196 20.1054 25.7071 20.2929C25.8946 20.4804 26 20.7348 26 21C26 21.2652 25.8946 21.5196 25.7071 21.7071C25.5196 21.8946 25.2652 22 25 22Z" fill="#F9E109"/>
<path d="M29 14H22C21.7348 14 21.4804 13.8946 21.2929 13.7071C21.1054 13.5196 21 13.2652 21 13C21 12.7348 21.1054 12.4804 21.2929 12.2929C21.4804 12.1054 21.7348 12 22 12H29C29.2652 12 29.5196 12.1054 29.7071 12.2929C29.8946 12.4804 30 12.7348 30 13C30 13.2652 29.8946 13.5196 29.7071 13.7071C29.5196 13.8946 29.2652 14 29 14Z" fill="#F9E109"/>
<path d="M18.03 20.76C18.675 20.9167 19.3362 20.9972 20 21C20 21.2652 19.8946 21.5196 19.7071 21.7071C19.5196 21.8947 19.2652 22 19 22C18.7348 22 18.4804 21.8947 18.2929 21.7071C18.1054 21.5196 18 21.2652 18 21C18.0001 20.9191 18.0102 20.8385 18.03 20.76V20.76Z" fill="#FCBC04"/>
<path d="M22 21H26C26 21.2652 25.8946 21.5196 25.7071 21.7071C25.5196 21.8946 25.2652 22 25 22H23C22.7348 22 22.4804 21.8946 22.2929 21.7071C22.1054 21.5196 22 21.2652 22 21Z" fill="#FCBC04"/>
<path d="M30 21C30 21.2652 29.8946 21.5196 29.7071 21.7071C29.5196 21.8946 29.2652 22 29 22C28.7348 22 28.4804 21.8946 28.2929 21.7071C28.1054 21.5196 28 21.2652 28 21H30Z" fill="#FCBC04"/>
<path d="M12 41C7.029 41 3 44.134 3 48C3.05189 49.1548 3.40619 50.2758 4.02745 51.2507C4.64871 52.2256 5.51513 53.0202 6.54 53.555L4 59L10.266 54.867C10.8398 54.9553 11.4195 54.9997 12 55C16.971 55 21 51.866 21 48C21 44.134 16.971 41 12 41Z" fill="#84D2F4"/>
<path d="M20.36 50.59C19.04 53.17 15.8 55 12 55C11.421 54.9976 10.8429 54.9541 10.27 54.87L4 59L6.54 53.56C5.51487 53.0242 4.64837 52.2287 4.02714 51.2529C3.40591 50.2772 3.05173 49.1555 3 48C3 45.43 4.78 43.18 7.43 41.97C7.14713 42.6094 7.00068 43.3008 7 44C7 47.87 11.48 51 17 51C18.1328 51.0047 19.2616 50.867 20.36 50.59V50.59Z" fill="#57B7EB"/>
<path d="M15 47C15.5523 47 16 46.5523 16 46C16 45.4477 15.5523 45 15 45C14.4477 45 14 45.4477 14 46C14 46.5523 14.4477 47 15 47Z" fill="#F9E109"/>
<path d="M8 51C8.55228 51 9 50.5523 9 50C9 49.4477 8.55228 49 8 49C7.44772 49 7 49.4477 7 50C7 50.5523 7.44772 51 8 51Z" fill="#FCBC04"/>
<path d="M11 47H9C8.73478 47 8.48043 46.8946 8.29289 46.7071C8.10536 46.5196 8 46.2652 8 46C8 45.7348 8.10536 45.4804 8.29289 45.2929C8.48043 45.1054 8.73478 45 9 45H11C11.2652 45 11.5196 45.1054 11.7071 45.2929C11.8946 45.4804 12 45.7348 12 46C12 46.2652 11.8946 46.5196 11.7071 46.7071C11.5196 46.8946 11.2652 47 11 47Z" fill="#F9E109"/>
<path d="M15 51H12C11.7348 51 11.4804 50.8946 11.2929 50.7071C11.1054 50.5196 11 50.2652 11 50C11 49.7348 11.1054 49.4804 11.2929 49.2929C11.4804 49.1054 11.7348 49 12 49H15C15.2652 49 15.5196 49.1054 15.7071 49.2929C15.8946 49.4804 16 49.7348 16 50C16 50.2652 15.8946 50.5196 15.7071 50.7071C15.5196 50.8946 15.2652 51 15 51Z" fill="#F9E109"/>
<path d="M15.42 50.9C15.2907 50.9682 15.1462 51.0026 15 51H12C11.7348 51 11.4804 50.8946 11.2929 50.7071C11.1054 50.5196 11 50.2652 11 50C11.003 49.8737 11.0266 49.7487 11.07 49.63C12.4274 50.3227 13.9031 50.7536 15.42 50.9V50.9Z" fill="#FCBC04"/>
<path d="M53 31H31C29.8954 31 29 31.8954 29 33V51C29 52.1046 29.8954 53 31 53H53C54.1046 53 55 52.1046 55 51V33C55 31.8954 54.1046 31 53 31Z" fill="#E9F1F2"/>
<path d="M55 48V51C54.9984 51.5299 54.7872 52.0377 54.4125 52.4125C54.0377 52.7872 53.5299 52.9984 53 53H31C30.4701 52.9984 29.9623 52.7872 29.5875 52.4125C29.2128 52.0377 29.0016 51.5299 29 51V33C29.0016 32.4701 29.2128 31.9623 29.5875 31.5875C29.9623 31.2128 30.4701 31.0016 31 31H34V40C34 42.1217 34.8429 44.1566 36.3431 45.6569C37.8434 47.1571 39.8783 48 42 48H55Z" fill="#D0D8DA"/>
<path d="M37 35H35C33.8954 35 33 35.8954 33 37C33 38.1046 33.8954 39 35 39H37C38.1046 39 39 38.1046 39 37C39 35.8954 38.1046 35 37 35Z" fill="#F9E109"/>
<path d="M49 35H47C45.8954 35 45 35.8954 45 37C45 38.1046 45.8954 39 47 39H49C50.1046 39 51 38.1046 51 37C51 35.8954 50.1046 35 49 35Z" fill="#F9E109"/>
<path d="M25 35H29V43H25C24.4696 43 23.9609 42.7893 23.5858 42.4142C23.2107 42.0391 23 41.5304 23 41V37C23 36.4696 23.2107 35.9609 23.5858 35.5858C23.9609 35.2107 24.4696 35 25 35V35Z" fill="#D0D8DA"/>
<path d="M44 46C44 44.8954 43.1046 44 42 44C40.8954 44 40 44.8954 40 46V48C40 49.1046 40.8954 50 42 50C43.1046 50 44 49.1046 44 48V46Z" fill="#93999A"/>
<path d="M49 53H35V57H49V53Z" fill="#D0D8DA"/>
<path d="M53 57H31V61H53V57Z" fill="#E9F1F2"/>
<path d="M35 57V53H49L35 57Z" fill="#93999A"/>
<path d="M53 59V61H31V57H33C33.0016 57.5299 33.2128 58.0377 33.5875 58.4125C33.9623 58.7872 34.4701 58.9984 35 59H53Z" fill="#D0D8DA"/>
<path d="M23 40V41C23.0016 41.5299 23.2128 42.0377 23.5875 42.4125C23.9623 42.7872 24.4701 42.9984 25 43H29V35H27V36C27 37.0609 26.5786 38.0783 25.8284 38.8284C25.0783 39.5786 24.0609 40 23 40Z" fill="#93999A"/>
<path d="M51 37C50.9961 37.5292 50.7841 38.0356 50.4099 38.4099C50.0356 38.7841 49.5292 38.9961 49 39H47C46.4701 38.9984 45.9623 38.7872 45.5875 38.4125C45.2128 38.0377 45.0016 37.5299 45 37C45.0039 36.4708 45.2159 35.9644 45.5901 35.5901C45.9644 35.2159 46.4708 35.0039 47 35C47.0016 35.5299 47.2128 36.0377 47.5875 36.4125C47.9623 36.7872 48.4701 36.9984 49 37H51Z" fill="#FCBC04"/>
<path d="M39 37C38.9961 37.5292 38.7841 38.0356 38.4099 38.4099C38.0356 38.7841 37.5292 38.9961 37 39H35C34.4701 38.9984 33.9623 38.7872 33.5875 38.4125C33.2128 38.0377 33.0016 37.5299 33 37C33.0039 36.4708 33.2159 35.9644 33.5901 35.5901C33.9644 35.2159 34.4708 35.0039 35 35C35.0016 35.5299 35.2128 36.0377 35.5875 36.4125C35.9623 36.7872 36.4701 36.9984 37 37H39Z" fill="#FCBC04"/>
<path d="M56 48H50C49.7348 48 49.4804 47.8946 49.2929 47.7071C49.1054 47.5196 49 47.2652 49 47C49 46.7348 49.1054 46.4804 49.2929 46.2929C49.4804 46.1054 49.7348 46 50 46H56C56.2652 46 56.5196 45.8946 56.7071 45.7071C56.8946 45.5196 57 45.2652 57 45V43C57 42.7348 57.1054 42.4804 57.2929 42.2929C57.4804 42.1054 57.7348 42 58 42C58.2652 42 58.5196 42.1054 58.7071 42.2929C58.8946 42.4804 59 42.7348 59 43V45C59 45.7956 58.6839 46.5587 58.1213 47.1213C57.5587 47.6839 56.7956 48 56 48V48Z" fill="#4891D3"/>
<path d="M49 49C50.1046 49 51 48.1046 51 47C51 45.8954 50.1046 45 49 45C47.8954 45 47 45.8954 47 47C47 48.1046 47.8954 49 49 49Z" fill="#57B7EB"/>
<path d="M50.82 47.8201C50.6881 48.1166 50.4861 48.3767 50.2313 48.5777C49.9765 48.7788 49.6766 48.9148 49.3575 48.974C49.0383 49.0332 48.7096 49.0139 48.3996 48.9177C48.0896 48.8215 47.8077 48.6513 47.5782 48.4218C47.3487 48.1923 47.1785 47.9104 47.0823 47.6004C46.9861 47.2904 46.9668 46.9617 47.026 46.6426C47.0853 46.3235 47.2213 46.0236 47.4223 45.7688C47.6234 45.5139 47.8834 45.3119 48.18 45.1801C48.0593 45.4364 47.9978 45.7167 48 46.0001C48.0016 46.53 48.2128 47.0378 48.5875 47.4125C48.9622 47.7872 49.47 47.9985 50 48.0001C50.2833 48.0023 50.5636 47.9407 50.82 47.8201V47.8201Z" fill="#4891D3"/>
<path d="M55 35H59C59.5304 35 60.0391 35.2107 60.4142 35.5858C60.7893 35.9609 61 36.4696 61 37V41C61 41.5304 60.7893 42.0391 60.4142 42.4142C60.0391 42.7893 59.5304 43 59 43H55V35Z" fill="#E9F1F2"/>
<path d="M61 40V41C60.9984 41.5299 60.7872 42.0377 60.4125 42.4125C60.0377 42.7872 59.5299 42.9984 59 43H55V35H57V36C57 37.0609 57.4214 38.0783 58.1716 38.8284C58.9217 39.5786 59.9391 40 61 40Z" fill="#D0D8DA"/>
</svg>
