<?xml version="1.0" encoding="UTF-8" standalone="no"?> <svg xmlns="http://www.w3.org/2000/svg" viewBox="0 0 64 64"><defs><style>.cls-1{fill:#55a6ff;}.cls-1,.cls-3,.cls-4,.cls-5,.cls-6,.cls-7{stroke:#54596e;}.cls-1,.cls-3,.cls-4,.cls-5,.cls-6,.cls-7,.cls-9{stroke-linecap:round;stroke-linejoin:round;stroke-width:2px;}.cls-2{fill:#9af43b;}.cls-3,.cls-4,.cls-5,.cls-9{fill:none;}.cls-4{stroke-dasharray:0.94 2.83;}.cls-5{stroke-dasharray:0.97 2.92;}.cls-6{fill:#ffd578;}.cls-7{fill:#fff;}.cls-8{fill:#54596e;}.cls-9{stroke:#ffb8f2;}</style></defs><title>security</title><g id="security"><path class="cls-1" d="M46.39,6C41.05,6,36.57,4.41,35.34,2.2a.38.38,0,0,0-.67,0C33.43,4.41,28.95,6,23.61,6a22.51,22.51,0,0,1-6.33-.85V19.94a20.1,20.1,0,0,0,7.38,15.33L35,44l10.34-8.73a20.1,20.1,0,0,0,7.38-15.33V5.18A22.51,22.51,0,0,1,46.39,6Z"/><path class="cls-2" d="M43.71,9.91C38.9,9.91,35,8.18,35,6c0,2.14-3.9,3.87-8.71,3.87a17.22,17.22,0,0,1-4.84-.65V20.54A15.37,15.37,0,0,0,27.1,32.26L35,38.94l7.9-6.68a15.37,15.37,0,0,0,5.64-11.72V9.26A17.22,17.22,0,0,1,43.71,9.91Z"/><path class="cls-3" d="M35.07,6.53A1.79,1.79,0,0,1,35,6a1.79,1.79,0,0,1-.07.49"/><path class="cls-4" d="M33,8.5a14.77,14.77,0,0,1-6.71,1.41,18.7,18.7,0,0,1-3-.23"/><path class="cls-3" d="M21.93,9.39l-.48-.13v.5"/><path class="cls-5" d="M21.45,12.67v7.86A15.37,15.37,0,0,0,27.1,32.26l6.41,5.41"/><polyline class="cls-3" points="34.62 38.62 35 38.94 35.38 38.62"/><path class="cls-5" d="M37.61,36.73l5.29-4.47a15.37,15.37,0,0,0,5.64-11.72V11.21"/><path class="cls-3" d="M48.55,9.76v-.5l-.48.13"/><path class="cls-4" d="M45.28,9.84c-.51,0-1,.06-1.57.06-3.47,0-6.47-.9-7.87-2.21"/><path class="cls-3" d="M26.52,18.82A1.91,1.91,0,0,1,30,18.73"/><path class="cls-3" d="M43,18.82a1.91,1.91,0,0,0-3.48-.09"/><path class="cls-3" d="M29.86,23.07A7,7,0,0,0,35,25a7,7,0,0,0,5.1-1.9"/><path class="cls-6" d="M36.56,52.53,58,47.73a2.5,2.5,0,0,0,2-2.89h0a2.5,2.5,0,0,0-2.89-2L37.92,46.17Z"/><path class="cls-6" d="M60.13,39.2a2.5,2.5,0,0,0-3.28-1.33L42,44H23l3-5h4a5,5,0,0,0,5-5H23L8,45l8,9,9,2h7.6A18.25,18.25,0,0,0,44,52h0l14.8-9.52A2.5,2.5,0,0,0,60.13,39.2Z"/><rect class="cls-7" x="5.65" y="44.11" width="8" height="16.79" transform="translate(-28.89 15.56) rotate(-35.79)"/><circle class="cls-8" cx="12" cy="56" r="2"/><line class="cls-9" x1="10" y1="3" x2="13" y2="6"/><line class="cls-9" x1="13" y1="3" x2="10" y2="6"/><line class="cls-9" x1="55" y1="30" x2="58" y2="33"/><line class="cls-9" x1="58" y1="30" x2="55" y2="33"/></g></svg>